<svg xmlns="http://www.w3.org/2000/svg" xmlns:xlink="http://www.w3.org/1999/xlink"
    viewBox="0,0,256,256" width="24px" height="24px" fill-rule="nonzero">
    <g fill="#ffffff" fill-rule="nonzero" stroke="none" stroke-width="1" stroke-linecap="butt"
        stroke-linejoin="miter" stroke-miterlimit="10" stroke-dasharray="" stroke-dashoffset="0"
        font-family="none" font-weight="none" font-size="none" text-anchor="none"
        style="mix-blend-mode: normal">
        <g transform="scale(4,4)">
            <path
                d="M32,6c-22.148,0 -28,15.699 -28,24v5c0,2.757 2.243,5 5,5h1v15c0,1.654 1.346,3 3,3h38c1.654,0 3,-1.346 3,-3v-15h1c2.757,0 5,-2.243 5,-5v-5c0,-8.301 -5.852,-24 -28,-24zM32,8c20.566,0 26,14.391 26,22v5c0,1.654 -1.346,3 -3,3h-1v-5c0,-0.552 -0.447,-1 -1,-1c-0.553,0 -1,0.448 -1,1v22c0,0.551 -0.448,1 -1,1h-38c-0.552,0 -1,-0.449 -1,-1v-22c0,-0.552 -0.447,-1 -1,-1c-0.553,0 -1,0.448 -1,1v5h-1c-1.654,0 -3,-1.346 -3,-3v-5c0,-7.609 5.434,-22 26,-22zM22,16c-2.209,0 -4,1.791 -4,4c0,2.056 1.55673,3.72908 3.55273,3.95508c-0.979,1.44 -1.55273,3.17692 -1.55273,5.04492v4c0,0.286 0.01406,0.56866 0.03906,0.84766c0.295,3.155 2.86652,4.471 5.10352,4.375c2.414,-0.113 4.85742,-1.86886 4.85742,-5.00586v-3.63281c0.59,0.258 1.268,0.41602 2,0.41602c0.732,0 1.41,-0.15802 2,-0.41602v3.63281c0,3.136 2.44342,4.89191 4.85742,5.00391c0.083,0.004 0.16505,0.00586 0.24805,0.00586c2.187,0 4.56952,-1.33895 4.85352,-4.37695c0.027,-0.28 0.04102,-0.56361 0.04102,-0.84961v-4c0,-1.868 -0.57373,-3.60492 -1.55273,-5.04492c1.996,-0.226 3.55273,-1.89908 3.55273,-3.95508c0,-2.209 -1.791,-4 -4,-4c-2.209,0 -4,1.791 -4,4c0,0.187 0.02969,0.36492 0.05469,0.54492c-0.956,-0.346 -1.98069,-0.54492 -3.05469,-0.54492h-6c-1.074,0 -2.09869,0.19892 -3.05469,0.54492c0.025,-0.18 0.05469,-0.35792 0.05469,-0.54492c0,-2.209 -1.791,-4 -4,-4zM29,22h6c3.859,0 7,3.14 7,7v4c0,0.223 -0.01025,0.44216 -0.03125,0.66016c-0.186,1.987 -1.75258,2.62245 -3.01758,2.56445c-1.469,-0.069 -2.95117,-1.02581 -2.95117,-3.00781v-6.2168c0,-1.657 -1.791,-3 -4,-3c-2.209,0 -4,1.343 -4,3v6.2168c0,1.981 -1.48217,2.93786 -2.95117,3.00586c-1.278,0.057 -2.83253,-0.5755 -3.01953,-2.5625c-0.02,-0.217 -0.0293,-0.43716 -0.0293,-0.66016v-4c0,-3.86 3.141,-7 7,-7zM11,24c-0.553,0 -1,0.448 -1,1v4c0,0.552 0.447,1 1,1c0.553,0 1,-0.448 1,-1v-4c0,-0.552 -0.447,-1 -1,-1zM53,24c-0.553,0 -1,0.448 -1,1v4c0,0.552 0.447,1 1,1c0.553,0 1,-0.448 1,-1v-4c0,-0.552 -0.447,-1 -1,-1zM16,50c-0.553,0 -1,0.448 -1,1v2c0,0.552 0.447,1 1,1c0.553,0 1,-0.448 1,-1v-2c0,-0.552 -0.447,-1 -1,-1zM21,50c-0.553,0 -1,0.448 -1,1v2c0,0.552 0.447,1 1,1c0.553,0 1,-0.448 1,-1v-2c0,-0.552 -0.447,-1 -1,-1zM26,50c-0.553,0 -1,0.448 -1,1v2c0,0.552 0.447,1 1,1c0.553,0 1,-0.448 1,-1v-2c0,-0.552 -0.447,-1 -1,-1zM31,50c-0.553,0 -1,0.448 -1,1v2c0,0.552 0.447,1 1,1c0.553,0 1,-0.448 1,-1v-2c0,-0.552 -0.447,-1 -1,-1zM36,50c-0.553,0 -1,0.448 -1,1v2c0,0.552 0.447,1 1,1c0.553,0 1,-0.448 1,-1v-2c0,-0.552 -0.447,-1 -1,-1zM41,50c-0.553,0 -1,0.448 -1,1v2c0,0.552 0.447,1 1,1c0.553,0 1,-0.448 1,-1v-2c0,-0.552 -0.447,-1 -1,-1zM46,50c-0.553,0 -1,0.448 -1,1v2c0,0.552 0.447,1 1,1c0.553,0 1,-0.448 1,-1v-2c0,-0.552 -0.447,-1 -1,-1z"></path>
        </g>
    </g>
</svg>